# xmcd
#
# Track frame offsets:
#	150
#	14080
#	31285
#	53972
#	64797
#	83532
#	96132
#	126675
#	135737
#	161927
#	174002
#	200780
#	214255
#	226507
#	244630
#	258477
#
# Disc length: 3615 seconds
# Revision: 0
# Processed by: cddbd v1.5.2PL0 Copyright (c) Steve Scherf et al.
# Submitted via: dBpowerAMP V12.0
#
DISCID=e10e1d10
DTITLE=Various Artist - Best of the Blues
DYEAR=1990
DGENRE=Blues
TTITLE0=Jeff Beck - Jeff's Blues
TTITLE1=John Lee Hooker - Blues Before Sunrise
TTITLE2=Sonny Terry and Brownie McGhee - Drinking in the Blues
TTITLE3=Muddy Waters - Diamonds at Your Feet
TTITLE4=Eric Clapton - They Call It Stormy Monday
TTITLE5=Howlin' Wolf - Ain't Superstitious
TTITLE6=Big Joe Turner - How Long Blues
TTITLE7=Jeff Beck - I Ain't Got You
TTITLE8=B.B. King - Guess Who
TTITLE9=Jimmy Reed - Honest I Do
TTITLE10=Otis Rush and Little Walther - It's Hard For Me to Believe, Baby
TTITLE11=Memphis Slim - Everyday I Have the Blues
TTITLE12=Elmore James - Mean Mistreatin' Mama
TTITLE13=Nina Simone - Blues For Mama
TTITLE14=Howlin' Wolf - Highway 49
TTITLE15=Muddy Waters - Forty Days and Forty Nights
EXTD=
EXTT0=
EXTT1=
EXTT2=
EXTT3=
EXTT4=
EXTT5=
EXTT6=
EXTT7=
EXTT8=
EXTT9=
EXTT10=
EXTT11=
EXTT12=
EXTT13=
EXTT14=
EXTT15=
PLAYORDER=
